<svg width="19" height="19" viewBox="0 0 19 19" fill="none" xmlns="http://www.w3.org/2000/svg">
<path d="M18.25 9.25C18.2477 6.86375 17.2988 4.5759 15.6114 2.88857C13.9241 1.20124 11.6362 0.252291 9.25 0.25C6.86305 0.25 4.57387 1.19821 2.88604 2.88604C1.19821 4.57387 0.25 6.86305 0.25 9.25C0.25 11.6369 1.19821 13.9261 2.88604 15.614C4.57387 17.3018 6.86305 18.25 9.25 18.25C11.6362 18.2477 13.9241 17.2988 15.6114 15.6114C17.2988 13.9241 18.2477 11.6362 18.25 9.25ZM16.8308 8.55769H13.3865C13.2481 5.99615 12.3481 3.625 10.8337 1.79904C12.4226 2.14037 13.8611 2.97997 14.9398 4.1956C16.0184 5.41123 16.6809 6.93942 16.8308 8.55769ZM6.50673 9.94231H11.9933C11.8375 12.4346 10.8423 14.7625 9.25 16.3808C7.65769 14.7625 6.6625 12.4346 6.50673 9.94231ZM6.50673 8.55769C6.6625 6.06538 7.65769 3.7375 9.25 2.11923C10.8423 3.7375 11.8375 6.06538 11.9933 8.55769H6.50673ZM7.66635 1.79904C6.15192 3.625 5.25192 5.99615 5.11346 8.55769H1.66923C1.81909 6.93942 2.48157 5.41123 3.56023 4.1956C4.63888 2.97997 6.0774 2.14037 7.66635 1.79904ZM1.66923 9.94231H5.11346C5.25192 12.5038 6.15192 14.875 7.66635 16.701C6.0774 16.3596 4.63888 15.52 3.56023 14.3044C2.48157 13.0888 1.81909 11.5606 1.66923 9.94231ZM10.8337 16.701C12.3481 14.875 13.2481 12.5038 13.3865 9.94231H16.8308C16.6809 11.5606 16.0184 13.0888 14.9398 14.3044C13.8611 15.52 12.4226 16.3596 10.8337 16.701Z" fill="black" fill-opacity="0.5"/>
</svg>
