<svg width="13" height="18" viewBox="0 0 13 18" fill="none" xmlns="http://www.w3.org/2000/svg">
<path d="M6.89998 6.3L8.19598 8.244C8.47498 8.667 9.10498 9 9.60898 9H12.3V7.2H9.59998L8.30398 5.256C7.95742 4.76847 7.53151 4.34255 7.04398 3.996L5.85598 3.204C5.62594 3.06593 5.36396 2.99001 5.09574 2.9837C4.82751 2.97739 4.56226 3.0409 4.32598 3.168L0.599976 5.4V9.9H2.39998V6.3L4.19998 5.4L1.49998 18H3.29998L5.41498 11.115L6.89998 12.6V18H8.69998V10.8L6.26998 8.37L6.89998 6.3ZM7.79998 3.6C8.27737 3.6 8.7352 3.41036 9.07277 3.07279C9.41033 2.73523 9.59998 2.27739 9.59998 1.8C9.59998 1.32261 9.41033 0.864773 9.07277 0.527208C8.7352 0.189642 8.27737 0 7.79998 0C7.32259 0 6.86475 0.189642 6.52718 0.527208C6.18962 0.864773 5.99998 1.32261 5.99998 1.8C5.99998 2.27739 6.18962 2.73523 6.52718 3.07279C6.86475 3.41036 7.32259 3.6 7.79998 3.6Z" fill="black" fill-opacity="0.5"/>
</svg>
