<svg width="18" height="18" viewBox="0 0 18 18" fill="none" xmlns="http://www.w3.org/2000/svg">
<path d="M0.75 14.25V3H2.25V10.5H8.25V4.5H14.25C15.075 4.5 15.7813 4.79375 16.3688 5.38125C16.9563 5.96875 17.25 6.675 17.25 7.5V14.25H15.75V12H2.25V14.25H0.75ZM5.25 9.75C4.625 9.75 4.09375 9.53125 3.65625 9.09375C3.21875 8.65625 3 8.125 3 7.5C3 6.875 3.21875 6.34375 3.65625 5.90625C4.09375 5.46875 4.625 5.25 5.25 5.25C5.875 5.25 6.40625 5.46875 6.84375 5.90625C7.28125 6.34375 7.5 6.875 7.5 7.5C7.5 8.125 7.28125 8.65625 6.84375 9.09375C6.40625 9.53125 5.875 9.75 5.25 9.75ZM9.75 10.5H15.75V7.5C15.75 7.0875 15.6033 6.73425 15.3097 6.44025C15.0157 6.14675 14.6625 6 14.25 6H9.75V10.5ZM5.25 8.25C5.4625 8.25 5.64075 8.178 5.78475 8.034C5.92825 7.8905 6 7.7125 6 7.5C6 7.2875 5.92825 7.10925 5.78475 6.96525C5.64075 6.82175 5.4625 6.75 5.25 6.75C5.0375 6.75 4.85925 6.82175 4.71525 6.96525C4.57175 7.10925 4.5 7.2875 4.5 7.5C4.5 7.7125 4.57175 7.8905 4.71525 8.034C4.85925 8.178 5.0375 8.25 5.25 8.25ZM5.25 8.25C5.0375 8.25 4.85925 8.178 4.71525 8.034C4.57175 7.8905 4.5 7.7125 4.5 7.5C4.5 7.2875 4.57175 7.10925 4.71525 6.96525C4.85925 6.82175 5.0375 6.75 5.25 6.75C5.4625 6.75 5.64075 6.82175 5.78475 6.96525C5.92825 7.10925 6 7.2875 6 7.5C6 7.7125 5.92825 7.8905 5.78475 8.034C5.64075 8.178 5.4625 8.25 5.25 8.25ZM9.75 6H14.25C14.6625 6 15.0157 6.14675 15.3097 6.44025C15.6033 6.73425 15.75 7.0875 15.75 7.5V10.5H9.75V6Z" fill="black" fill-opacity="0.5"/>
</svg>
