<svg xmlns="http://www.w3.org/2000/svg" width="1866" height="896" viewBox="0 0 1866 896" fill="none"><rect width="1866" height="896" fill="white"></rect><path fill-rule="evenodd" clip-rule="evenodd" d="M0 611L104 651.714C207 692.429 415 773.857 622 767.314C829 760.043 1037 665.528 1244 658.258C1451 651.714 1659 733.143 1762 773.857L1866 814.571V896H1762C1659 896 1451 896 1244 896C1037 896 829 896 622 896C415 896 207 896 104 896H0V611Z" fill="#253243" fill-opacity="0.05"></path><path fill-rule="evenodd" clip-rule="evenodd" d="M0 285L104 244.286C207 203.571 415 122.143 622 128.686C829 135.957 1037 230.472 1244 237.742C1451 244.286 1659 162.857 1762 122.143L1866 81.4286V0H1762C1659 0 1451 0 1244 0C1037 0 829 0 622 0C415 0 207 0 104 0H0V285Z" fill="#253243" fill-opacity="0.05"></path></svg>